<?xml version="1.0" encoding="UTF-8"?>
<svg data-bbox="0 9.2 250 74.1" viewBox="0 0 250 95" xmlns="http://www.w3.org/2000/svg" data-type="ugc">
    <g>
        <path d="M50.1 24.2c2.1-.1 4.2.3 6.1 1.2 1.9.9 3.6 2.2 4.9 3.9 2.7 3.6 4 8 3.9 12.5.2 4.5-1.2 9-4 12.6-1.3 1.6-2.9 2.9-4.8 3.7-1.9.8-3.9 1.3-5.9 1.2-2.1.1-4.3-.3-6.2-1.2-1.9-.9-3.6-2.3-4.8-4.1-2.5-3.5-3.8-7.8-3.7-12.1-.2-4.5 1.3-9 4-12.6 1.2-1.6 2.9-2.9 4.7-3.8 1.7-.9 3.8-1.3 5.8-1.3zm.1 2.6c-1.8 0-3.1 1.1-3.8 3.2-.8 2.1-1.1 7-1.1 14.6-.1 3.1.2 6.2 1 9.2.2.9.7 1.6 1.4 2.2.7.5 1.6.8 2.4.8.9 0 1.9-.3 2.6-.8.7-.6 1.2-1.4 1.4-2.3.6-2.1.9-7 .9-14.6.1-8.3-1.5-12.3-4.8-12.3z" fill="#757575"/>
        <path d="M116.5 10.4v41.1c-.1 1.4.1 2.9.6 4.2.4.8 1.5 1.3 3.2 1.3v1.3h-17V57c1 0 2-.3 2.8-1 .7-.6 1-2.1 1-4.6V17.2c0-2.4-.3-3.9-.9-4.5-.8-.7-1.8-1-2.9-1v-1.3h13.2z" fill="#757575"/>
        <path d="M135.6 25.2v26.2c-.1 1.4.1 2.9.6 4.2.4.8 1.5 1.3 3.2 1.3v1.3h-17V57c1 .1 2.1-.3 2.9-1 .6-.6 1-2.1 1-4.6V32.1c.1-1.4-.1-2.9-.6-4.2-.4-.8-1.5-1.2-3.2-1.3v-1.3h13.1zm-4.7-16c1.3 0 2.6.5 3.6 1.4.6.5 1 1.1 1.3 1.8.3.7.4 1.5.4 2.2 0 .8-.1 1.5-.4 2.2-.3.7-.7 1.3-1.3 1.8-1 .9-2.2 1.4-3.6 1.4-.7 0-1.4-.1-2-.4-.6-.3-1.2-.7-1.7-1.2-1-1-1.5-2.4-1.4-3.9 0-1.4.5-2.7 1.3-3.7.4-.6 1-1 1.7-1.3.6-.1 1.3-.3 2.1-.3z" fill="#757575"/>
        <path d="M159.8 53.4c-3.9 3.5-7.3 5.3-10.3 5.3-1.6 0-3.1-.6-4.3-1.6-.7-.6-1.2-1.4-1.5-2.2-.3-.8-.5-1.8-.4-2.7 0-1.3.3-2.6.9-3.8.6-1.2 1.4-2.3 2.4-3.1 2.2-2.1 6.7-4.7 13.3-7.9v-3.3c0-4.8-1.4-7.1-4.3-7.1-2.8 0-4.5.8-4.5 2.5.2.8.6 1.5 1.1 2.1.7.8 1.1 1.7 1.1 2.7 0 2.8-1.4 4.2-4.4 4.2-1.3 0-2.5-.4-3.5-1.3-.5-.4-.8-.9-1.1-1.4-.3-.6-.4-1.2-.4-1.8 0-1.5.4-2.9 1.2-4.2.8-1.3 1.9-2.3 3.3-2.9 3-1.7 6.5-2.6 9.9-2.5 2.3-.1 4.6.4 6.7 1.4 1.6.8 2.8 2.2 3.4 3.8.7 2.6 1 5.2.8 7.8v12.8c0 2.7.5 4 1.4 4 .6 0 1.2-.4 1.8-1.3l1 .9c-2.1 3.3-4.7 5-7.6 5-.8.1-1.5 0-2.2-.2-.7-.2-1.4-.6-2-1.1-.6-.5-1-1.1-1.4-1.8-.2-.8-.4-1.5-.4-2.3zm0-2.6V39.7c-4.9 3.1-7.4 6.1-7.4 9.2 0 .9.3 1.9.9 2.6.3.4.7.7 1.1.9.4.2.9.3 1.4.3 1.6-.1 3-.8 4-1.9z" fill="#757575"/>
        <path d="M189.4 13.2v12.1h7.5v3.5h-7.5v20.4c0 3.7.8 5.6 2.3 5.6 1.5 0 2.9-1.2 4.1-3.5l1 .8c-1.8 4.5-4.8 6.8-8.8 6.8-1.7.1-3.5-.4-4.9-1.3-1.2-.8-2.1-2-2.6-3.4-.5-2.4-.7-4.9-.6-7.4V28.7h-4.1v-1.2c5.2-3.8 9.5-8.7 12.5-14.3h1.1z" fill="#757575"/>
        <path d="M212.3 13.2v12.1h7.5v3.5h-7.5v20.4c0 3.7.8 5.6 2.3 5.6 1.5 0 2.9-1.2 4.1-3.5l1 .8c-1.8 4.5-4.8 6.8-8.8 6.8-1.7.1-3.5-.4-4.9-1.3-1.2-.8-2.1-2-2.5-3.4-.5-2.4-.7-4.9-.6-7.4V28.7h-4.1v-1.2c5.2-3.8 9.4-8.7 12.4-14.3h1.1z" fill="#757575"/>
        <path d="M235.1 25.2v26.2c-.1 1.4.1 2.9.6 4.2.4.8 1.4 1.3 3.2 1.3v1.3h-17V57c1 .1 2.1-.3 2.9-1 .6-.6 1-2.1 1-4.6V32.1c.1-1.4-.1-2.9-.6-4.2-.4-.8-1.4-1.2-3.2-1.3v-1.3h13.1zm-4.8-16c1.3 0 2.6.5 3.6 1.4.6.5 1 1.1 1.3 1.8.3.7.4 1.5.4 2.2 0 .8-.1 1.5-.4 2.2-.3.7-.7 1.3-1.3 1.8-1 .9-2.2 1.4-3.6 1.4-.7 0-1.4-.1-2-.4s-1.2-.7-1.7-1.2c-1-1-1.5-2.4-1.4-3.9 0-1.4.5-2.7 1.3-3.7.4-.6 1-1 1.7-1.3.7-.2 1.4-.3 2.1-.3z" fill="#757575"/>
        <path d="M89.9 25.6h10.6v3.9h-6c1.9 1.9 3 4.5 3.1 7.2.1 2.1-.5 4.2-1.7 6-1.3 1.8-3 3.2-5.1 4.1-1.8.9-3.8 1.4-5.8 1.5l-4.3-.2c-.5 0-.9.1-1.3.3-.4.2-.8.4-1.1.8-.3.3-.6.7-.8 1.1-.2.4-.3.9-.3 1.4 0 1.9 1.3 2.9 3.9 2.9H87c2.9-.1 5.8.2 8.5 1 1.5.5 2.9 1.5 3.8 2.9.8 1.4 1.3 3 1.2 4.6.1 1.6-.3 3.2-1 4.7-.8 1.4-1.9 2.6-3.3 3.4-3.7 2-7.8 3-12 2.8-9.5 0-14.3-2.2-14.2-6.5 0-2.4 1.8-4.1 5.5-5.1-2.9-1.4-4.3-3.6-4.3-6.3 0-3.7 2.5-6.6 7.4-8.7-5.7-2.2-8.5-5.9-8.5-11.1-.1-1.7.3-3.4 1-4.9.7-1.5 1.8-2.9 3.1-3.9 2.7-2.1 6-3.2 9.3-3.2 2.2 0 4.4.5 6.4 1.3zm-7.8 37.6c-4.3 0-6.5 1.2-6.5 3.6 0 3.2 3.2 4.7 9.5 4.7 6.7 0 10.1-1.6 10.1-5 0-.7-.2-1.3-.6-1.8-.4-.5-1-.8-1.7-.9-3.6-.6-7.2-.8-10.8-.6zm2-36.7c-3.1 0-4.6 3.5-4.6 10.6 0 6.1 1.4 9.2 4.5 9.2 3 0 4.7-3.2 4.7-9.5-.1-6.9-1.6-10.4-4.6-10.3z" fill="#757575"/>
        <path d="M163.3 64v-.5h9.6v.5h-.6c-.8 0-1.3.2-1.6.6-.3.7-.4 1.5-.4 2.2v9.5c0 1.2-.1 2.4-.4 3.6-.2 1-.8 1.9-1.7 2.4-1 .7-2.3 1-3.5 1-1.2 0-2.4-.4-3.4-1.1-.5-.3-.9-.8-1.2-1.3-.3-.5-.4-1.1-.4-1.7 0-.6.2-1.1.5-1.5.2-.2.4-.4.6-.5.3-.1.5-.2.8-.2.5 0 1 .2 1.3.5.2.2.4.4.5.7.1.3.2.5.1.8 0 .5-.2.9-.4 1.3-.2.3-.4.6-.4.9 0 .7.5 1 1.7 1 .3 0 .6 0 .8-.2.2-.1.4-.4.5-.6.3-1.4.4-2.8.3-4.1V66.7c0-.5 0-1.1-.1-1.6 0-.2-.1-.3-.2-.5-.1-.1-.2-.3-.4-.3-.4-.3-.9-.4-1.3-.3h-.7z" fill="#757575"/>
        <path d="M179.8 69c.8 0 1.7.1 2.4.5.8.4 1.4.9 1.9 1.6 1.1 1.5 1.6 3.2 1.5 5 .1 1.8-.5 3.6-1.6 5-.5.6-1.2 1.2-1.9 1.5-.7.3-1.5.5-2.4.5-.8 0-1.7-.1-2.4-.5-.8-.4-1.4-.9-1.9-1.6-1-1.4-1.5-3.1-1.4-4.9-.1-1.8.5-3.6 1.6-5.1.5-.6 1.1-1.1 1.8-1.5.8-.3 1.6-.5 2.4-.5zm0 1.1c-.7 0-1.2.4-1.4 1.3-.4 1.9-.6 3.9-.4 5.9-.1 1.3.1 2.5.4 3.7.1.3.2.6.5.9.3.2.6.3.9.3.4 0 .7-.1 1-.3.3-.2.5-.6.6-.9.3-1.9.5-3.9.4-5.9-.1-3.4-.7-5-2-5z" fill="#757575"/>
        <path d="M199.5 69.4v10.4c0 .6 0 1.2.2 1.8.1.3.5.5 1.1.6v.5h-5.1V81c-.4.6-1 1.2-1.6 1.5-.7.4-1.4.6-2.1.6-.7 0-1.5-.3-2-.8s-.9-1.1-1.1-1.8c-.2-1-.2-1.9-.2-2.9v-5.3c0-.6 0-1.2-.2-1.8-.1-.3-.5-.5-1.1-.6v-.5h5.1V79c0 1.4.4 2.2 1.2 2.2.8 0 1.4-.6 2.1-1.8v-7.1c0-.6 0-1.2-.2-1.8-.1-.3-.5-.5-1.1-.6v-.5h5z" fill="#757575"/>
        <path d="M207.8 69.4v3c1.4-2.3 2.7-3.4 4-3.4s1.6.6 1.6 1.9c0 1.2-.5 2-1.4 2-.5 0-.9-.2-1.3-.5-.4-.4-.7-.6-.9-.6-.6 0-1.1.5-1.4 1.4-.4 1.1-.5 2.2-.5 3.3v3.9c0 .5.1.9.3 1.4.2.2.4.3.6.4.2.1.5.1.7.1v.5h-6.7v-.5c.2 0 .4 0 .6-.1.2-.1.4-.2.5-.4.2-.7.3-1.4.3-2.1v-7.4c0-.6 0-1.2-.2-1.7-.1-.3-.5-.5-1.1-.5v-.5h4.9z" fill="#757575"/>
        <path d="M219.8 69.4v1.7c.4-.6 1-1.1 1.6-1.5.6-.4 1.4-.6 2.1-.6.7 0 1.4.2 2 .6.6.4.9 1.1 1.1 1.7.2 1.1.3 2.2.2 3.3v5.2c0 .6 0 1.2.2 1.8.1.3.5.5 1.1.6v.5h-6.3v-.5c.2 0 .4-.1.6-.2.2-.1.3-.3.4-.4.2-.6.2-1.2.2-1.8v-6c0-2-.4-2.9-1.1-2.9-.8 0-1.4.6-2.1 1.7v7.1c0 .6 0 1.2.2 1.8.1.2.2.3.4.4.2.1.4.2.6.2v.5h-6.3v-.5c.4 0 .7-.2 1-.4.3-.6.4-1.3.3-2v-7.5c0-.6 0-1.2-.2-1.8-.1-.3-.5-.5-1.1-.6v-.5l5.1.1z" fill="#757575"/>
        <path d="M236.8 80.8c-1 1.2-2.5 2-4.1 2.1-.6 0-1.2-.2-1.7-.7-.3-.2-.5-.6-.6-.9-.1-.3-.2-.7-.2-1.1 0-.5.1-1.1.4-1.5.2-.5.6-.9 1-1.3 1.6-1.3 3.4-2.4 5.2-3.2V73c0-1.9-.6-2.9-1.7-2.9s-1.8.3-1.8 1c.1.3.2.6.4.8.3.3.4.7.4 1.1 0 1.1-.6 1.7-1.7 1.7-.3 0-.5 0-.8-.1-.2-.1-.5-.2-.7-.4-.2-.2-.3-.4-.4-.6-.1-.2-.1-.5-.1-.7 0-.6.1-1.2.5-1.7.3-.5.8-.9 1.3-1.2 1.2-.7 2.5-1 3.9-1 .9 0 1.8.2 2.6.6.6.3 1.1.9 1.3 1.5.3 1 .4 2.1.3 3.2v5.2c0 1.1.2 1.6.6 1.6.2 0 .5-.2.7-.5l.4.3c-.3.6-.7 1-1.2 1.4-.5.4-1.1.6-1.8.6-.3 0-.6 0-.9-.1-.3-.1-.5-.2-.8-.4-.2-.2-.4-.4-.5-.7v-.9zm0-1.1v-4.4c-1.9 1.2-2.9 2.5-2.9 3.7 0 .4.1.7.4 1 .1.2.3.3.4.4.2.1.4.1.6.1.5 0 1.1-.3 1.5-.8z" fill="#757575"/>
        <path d="M248.5 63.4V80c0 .6.1 1.2.2 1.7.2.3.6.5 1.3.5v.5h-6.7v-.5c.4 0 .8-.1 1.1-.4.3-.6.5-1.2.4-1.9V66.2c.1-.6 0-1.3-.4-1.8-.3-.3-.7-.4-1.1-.4v-.5h5.2z" fill="#757575"/>
        <path d="M43 10.5v13h-1.3c-.5-2.3-1.5-4.5-2.8-6.5-.8-1.4-2.1-2.4-3.5-3.1-1.5-.5-3.1-.7-4.7-.6h-3.5v36.9c0 1.3 0 2.7.2 4 .1.4.3.8.5 1.2.2.3.6.6.9.8 1.1.6 2.3 1 3.6.9H34v1.3H8.9v-1.3h1.6c1.1.1 2.2-.2 3.2-.7.6-.4 1.1-.9 1.4-1.6.4-1.5.6-3.1.5-4.6v-37h-3.4c-1.8-.1-3.5.2-5.2.9-1.5.7-2.8 1.9-3.6 3.4-1.1 1.8-1.8 3.9-2.1 6H0v-13h43z" fill="#757575"/>
        <path d="M35.7 66.5c0-.6.1-1.2.5-1.7.1-.2.3-.3.6-.4.2-.1.4-.2.7-.2s.5.1.7.2c.2.1.4.3.6.4.4.5.5 1.1.5 1.7.1.6-.1 1.3-.5 1.8-.1.2-.3.3-.5.4-.2.1-.4.2-.7.2-.2 0-.5 0-.7-.2-.2-.1-.4-.3-.6-.4-.5-.6-.6-1.2-.6-1.8zm.6 0c0 .5.1.9.3 1.3l.3.3c.1.1.3.1.5.1.1 0 .3 0 .4-.1l.3-.3c.2-.4.3-.8.3-1.3s-.1-.9-.3-1.3c-.1-.1-.2-.2-.4-.3-.1-.1-.3-.1-.5-.1s-.3 0-.4.1l-.3.3c-.1.4-.2.8-.2 1.3z" fill="#757575"/>
        <path d="M41.9 64.3H44v.6h-1.4v3.9H42l-.1-4.5z" fill="#757575"/>
        <path d="M44.2 66.5c0-.6.1-1.2.5-1.7.1-.2.3-.3.6-.4.2-.1.4-.2.7-.2s.5.1.7.2c.2.1.4.3.6.4.4.5.5 1.1.5 1.7 0 .6-.1 1.3-.5 1.8-.1.2-.3.3-.6.4-.2.1-.5.2-.7.2-.2 0-.5 0-.7-.2-.2-.1-.4-.3-.6-.4-.3-.6-.5-1.2-.5-1.8zm.7 0c0 .5.1.9.3 1.3l.3.3c.1.1.3.1.5.1.1 0 .3 0 .4-.1l.3-.3c.2-.4.3-.8.3-1.3s-.1-.9-.3-1.3l-.3-.3c-.1-.1-.3-.1-.4-.1-.2 0-.3 0-.4.1l-.3.3c-.3.4-.5.8-.4 1.3z" fill="#757575"/>
        <path d="M48.4 70.5v-6.2h.6v.6c.1-.2.3-.4.5-.5.2-.1.4-.2.6-.2.3 0 .6.1.8.2.3.2.5.5.6.8.2.4.2.8.2 1.3 0 .6-.1 1.2-.5 1.8-.1.2-.3.3-.5.4-.2.1-.4.2-.6.2-.2 0-.4-.1-.5-.1-.2-.1-.3-.3-.4-.4v2.2h-.8zm.5-4c0 .4.1.9.3 1.3l.3.3c.1.1.3.1.4.1.1 0 .3 0 .4-.1l.3-.3c.2-.4.3-.9.3-1.3 0-.5-.1-.9-.3-1.3l-.3-.3c-.1-.1-.3-.1-.4-.1-.1 0-.3.1-.4.1l-.3.3c-.2.4-.3.9-.3 1.3z" fill="#757575"/>
        <path d="M52.1 66.5c0-.6.1-1.2.5-1.7.1-.2.3-.3.6-.4.2-.1.4-.2.7-.2.2 0 .5.1.7.2.2.1.4.3.6.4.4.5.5 1.1.5 1.7 0 .6-.1 1.3-.5 1.8-.1.2-.3.3-.6.4-.2.1-.5.2-.7.2-.2 0-.5 0-.7-.2-.2-.1-.4-.3-.5-.4-.4-.6-.6-1.2-.6-1.8zm.7 0c0 .5.1.9.3 1.3l.3.3c.1.1.3.1.4.1.2 0 .3 0 .4-.1l.3-.3c.2-.4.3-.8.3-1.3 0-.4-.1-.9-.3-1.3l-.3-.3c-.1-.1-.3-.1-.4-.1-.2 0-.3 0-.4.1l-.3.3c-.2.4-.3.8-.3 1.3z" fill="#757575"/>
        <path d="M56.8 64.3h2.6v3.8h.4V70h-.5v-1.3h-2.9V70h-.5v-1.9h.3c.5-1.2.7-2.5.6-3.8zm.6.6c0 1.1-.2 2.2-.5 3.2h2v-3.2h-1.5z" fill="#757575"/>
        <path d="m63 67.3.6.1c-.1.4-.3.8-.6 1.1-.3.3-.8.4-1.2.4-.4 0-.8-.3-1.1-.6-.4-.5-.5-1.1-.5-1.7 0-.6.1-1.3.5-1.8.1-.2.3-.3.5-.5.2-.1.5-.2.7-.2.2 0 .5 0 .7.2.2.1.4.3.5.4.4.5.5 1.1.5 1.7v.2h-2.7c0 .4.1.8.3 1.1l.3.3c.1.1.3.1.4.1.6.1.9-.2 1.1-.8zm-2-1.2h2c0-.3-.1-.6-.2-.9-.1-.1-.2-.2-.4-.3s-.3-.1-.5-.1c-.1 0-.3 0-.4.1-.1.1-.2.1-.3.3-.2.2-.3.5-.2.9z" fill="#757575"/>
        <path d="M103.2 64.3h.7v1.9h.2c.1 0 .1-.1.2-.1.2-.2.3-.5.3-.8.1-.2.2-.5.3-.7.1-.1.2-.2.3-.2h.6v.6h-.5c-.1.1-.1.2-.1.3l-.3.9c-.1.1-.2.3-.4.3.3.1.5.4.8.9l.7 1.4h-.7l-.7-1.4c-.1-.2-.2-.4-.4-.5-.1-.1-.2-.1-.4-.1v2.1h-.6v-4.6z" fill="#757575"/>
        <path d="M106 66.5c0-.6.1-1.2.5-1.7.1-.2.3-.3.6-.4.2-.1.4-.2.7-.2.2 0 .5.1.7.2.2.1.4.3.6.4.4.5.5 1.1.5 1.7 0 .6-.1 1.3-.5 1.8-.1.2-.3.3-.6.4-.2.1-.5.2-.7.2-.2 0-.5 0-.7-.2-.2-.1-.4-.3-.6-.4-.3-.6-.5-1.2-.5-1.8zm.7 0c0 .5.1.9.3 1.3l.3.3c.1.1.3.1.5.1s.3 0 .4-.1l.3-.3c.2-.4.3-.8.3-1.3s-.1-.9-.3-1.3l-.3-.3c-.1-.1-.3-.1-.4-.1-.2 0-.3 0-.4.1l-.3.3c-.3.4-.4.8-.4 1.3z" fill="#757575"/>
        <path d="M110.3 64.3h1l1 3.6 1.1-3.6h.9v4.5h-.6v-3.6l-1.1 3.6h-.5l-1-3.8v3.8h-.6v-4.5z" fill="#757575"/>
        <path d="M115.1 64.3h2.9v4.5h-.6v-3.9h-1.7v3.9h-.6v-4.5z" fill="#757575"/>
        <path d="m121.5 67.3.7.1c-.1.4-.3.8-.6 1.1-.3.3-.7.4-1.1.4-.2 0-.5 0-.7-.1-.2-.1-.4-.3-.6-.4-.4-.5-.5-1.1-.5-1.7 0-.6.1-1.3.5-1.8.1-.2.3-.3.5-.5.2-.1.5-.2.7-.2.2 0 .5 0 .7.2.2.1.4.3.5.4.4.5.5 1.1.5 1.7v.2h-2.7c0 .4.1.8.3 1.1l.3.3c.1.1.3.1.4.1.6 0 .9-.3 1.1-.9zm-2-1.2h2.1c0-.3-.1-.6-.3-.9l-.3-.3c-.1-.1-.3-.1-.4-.1-.1 0-.3 0-.4.1-.1.1-.2.1-.3.3-.3.2-.4.5-.4.9z" fill="#757575"/>
        <path d="M122.7 64.3h2.9v.6h-1.2v3.9h-.6v-3.9h-1.1v-.6z" fill="#757575"/>
        <path d="m128.7 67.3.7.1c-.1.4-.3.8-.6 1.1-.3.3-.7.4-1.1.4-.2 0-.5 0-.7-.1-.2-.1-.4-.3-.6-.4-.4-.5-.5-1.1-.5-1.7 0-.6.1-1.3.5-1.8.1-.2.3-.3.5-.5.2-.1.5-.2.7-.2.2 0 .5 0 .7.2.2.1.4.3.5.4.4.5.5 1.1.5 1.7v.2h-2.7c0 .4.1.8.3 1.1l.3.3c.1.1.3.1.4.1.6 0 .9-.3 1.1-.9zm-2-1.2h2.1c0-.3-.1-.6-.3-.9l-.3-.3c-.1-.1-.3-.1-.4-.1-.1 0-.3 0-.4.1-.1.1-.2.1-.3.3-.3.2-.4.5-.4.9z" fill="#757575"/>
        <path d="M130.2 64.3h.6v1.9h1.7v-1.9h.6v4.5h-.6v-2h-1.7v2h-.6v-4.5z" fill="#757575"/>
        <path d="M133.7 64.3h3v.6h-1.2v3.9h-.6v-3.9h-1.2v-.6z" fill="#757575"/>
        <path d="M137.3 64.3h.6v1.9h1.7v-1.9h.6v4.5h-.6v-2H138v2h-.6v-4.5z" fill="#757575"/>
        <path d="M141 66.5c0-.6.1-1.2.5-1.7.1-.2.3-.3.5-.4.2-.1.4-.2.7-.2s.5.1.7.2c.2.1.4.3.5.4.4.5.5 1.1.5 1.7.1.6-.1 1.3-.5 1.8-.1.2-.3.3-.6.4-.2.1-.4.2-.7.2-.2 0-.5-.1-.7-.2-.2-.1-.4-.3-.6-.4-.1-.6-.3-1.2-.3-1.8zm.7 0c0 .5.1.9.3 1.3l.3.3c.1.1.3.1.4.1s.3 0 .4-.1l.3-.3c.2-.4.3-.8.3-1.3s-.1-.9-.3-1.3l-.3-.3c-.1-.1-.3-.1-.4-.1-.2 0-.3 0-.4.1l-.3.3c-.3.4-.4.8-.3 1.3z" fill="#757575"/>
        <path d="M8.5 61.1h63.6" fill="none" stroke="#1a1a18" stroke-width=".011" stroke-miterlimit="10"/>
        <path d="M101.3 61.1h146.9" fill="none" stroke="#1a1a18" stroke-width=".011" stroke-miterlimit="10"/>
    </g>
</svg>
